<svg width="226" height="15" viewBox="0 0 226 15" fill="none" xmlns="http://www.w3.org/2000/svg">
<path d="M9.07415 14.6955V12.0162H2.75822V0.304465H0V14.6955H9.07415Z" fill="#3367B0"/>
<path d="M12.7345 7.48985C12.7345 4.24222 14.973 2.69959 17.1516 2.69959C19.3502 2.69959 21.5887 4.24222 21.5887 7.48985C21.5887 10.7375 19.3502 12.2801 17.1516 12.2801C14.973 12.2801 12.7345 10.7375 12.7345 7.48985ZM9.87629 7.51015C9.87629 12.138 13.3141 15 17.1516 15C21.0091 15 24.4469 12.138 24.4469 7.51015C24.4469 2.86198 21.0091 0 17.1516 0C13.3141 0 9.87629 2.86198 9.87629 7.51015Z" fill="#3367B0"/>
<path d="M39.6699 14.6955V7.20568H32.5945V9.64141H37.0716C36.9117 10.6563 35.8923 12.4425 33.274 12.4425C30.8956 12.4425 28.7969 10.7578 28.7969 7.51015C28.7969 4.10014 31.1154 2.6184 33.254 2.6184C35.5526 2.6184 36.7318 4.10014 37.0916 5.37889L39.7299 4.4249C39.0303 2.21245 36.9716 0 33.254 0C29.4165 0 25.9987 2.86198 25.9987 7.51015C25.9987 12.1583 29.2566 15 33.0742 15C35.2128 15 36.6119 14.0257 37.2515 13.0514L37.4313 14.6955H39.6699Z" fill="#3367B0"/>
<path d="M44.4718 7.48985C44.4718 4.24222 46.7104 2.69959 48.889 2.69959C51.0876 2.69959 53.3261 4.24222 53.3261 7.48985C53.3261 10.7375 51.0876 12.2801 48.889 12.2801C46.7104 12.2801 44.4718 10.7375 44.4718 7.48985ZM41.6137 7.51015C41.6137 12.138 45.0514 15 48.889 15C52.7465 15 56.1843 12.138 56.1843 7.51015C56.1843 2.86198 52.7465 0 48.889 0C45.0514 0 41.6137 2.86198 41.6137 7.51015Z" fill="#3367B0"/>
<path d="M68.638 2.96346V0.304465H56.9055V2.96346H61.3826V14.6955H64.1608V2.96346H68.638Z" fill="#3367B0"/>
<path d="M73.3777 14.6955V0.304465H70.5795V14.6955H73.3777Z" fill="#3367B0"/>
<path d="M79.389 6.86062V2.74019H81.5676C82.9467 2.74019 83.7862 3.5318 83.7862 4.81055C83.7862 6.04871 82.9467 6.86062 81.5676 6.86062H79.389ZM81.9074 9.27605C84.7056 9.27605 86.5644 7.40866 86.5644 4.79026C86.5644 2.19215 84.7056 0.304465 81.9074 0.304465H76.6108V14.6955H79.369V9.27605H81.9074Z" fill="#3367B0"/>
<path d="M90.7506 7.48985C90.7506 4.24222 92.9891 2.69959 95.1677 2.69959C97.3663 2.69959 99.6049 4.24222 99.6049 7.48985C99.6049 10.7375 97.3663 12.2801 95.1677 12.2801C92.9891 12.2801 90.7506 10.7375 90.7506 7.48985ZM87.8924 7.51015C87.8924 12.138 91.3302 15 95.1677 15C99.0253 15 102.463 12.138 102.463 7.51015C102.463 2.86198 99.0253 0 95.1677 0C91.3302 0 87.8924 2.86198 87.8924 7.51015Z" fill="#3367B0"/>
<path d="M112.551 12.0974V2.90257H114.769C117.088 2.90257 119.007 4.3843 119.007 7.51015C119.007 10.636 117.068 12.0974 114.749 12.0974H112.551ZM114.849 14.6955C118.887 14.6955 121.865 12.0568 121.865 7.51015C121.865 2.96346 118.907 0.304465 114.869 0.304465H109.793V14.6955H114.849Z" fill="#3367B0"/>
<path d="M126.275 7.48985C126.275 4.24222 128.513 2.69959 130.692 2.69959C132.89 2.69959 135.129 4.24222 135.129 7.48985C135.129 10.7375 132.89 12.2801 130.692 12.2801C128.513 12.2801 126.275 10.7375 126.275 7.48985ZM123.416 7.51015C123.416 12.138 126.854 15 130.692 15C134.549 15 137.987 12.138 137.987 7.51015C137.987 2.86198 134.549 0 130.692 0C126.854 0 123.416 2.86198 123.416 7.51015Z" fill="#3367B0"/>
<path d="M151.732 15C155.71 15 157.749 12.3207 158.288 10.1083L155.71 9.31664C155.33 10.6563 154.151 12.2598 151.732 12.2598C149.454 12.2598 147.335 10.5751 147.335 7.51015C147.335 4.24222 149.574 2.69959 151.692 2.69959C154.151 2.69959 155.25 4.22192 155.59 5.60217L158.188 4.76996C157.629 2.43572 155.61 0 151.692 0C147.895 0 144.477 2.92287 144.477 7.51015C144.477 12.0974 147.775 15 151.732 15Z" fill="#3367B0"/>
<path d="M169.654 14.6955V12.0162H163.338V0.304465H160.58V14.6955H169.654Z" fill="#3367B0"/>
<path d="M174.563 14.6955V0.304465H171.764V14.6955H174.563Z" fill="#3367B0"/>
<path d="M186.67 14.6955V12.0568H180.554V8.72801H186.09V6.23139H180.554V2.94317H186.67V0.304465H177.796V14.6955H186.67Z" fill="#3367B0"/>
<path d="M201.521 14.6955V0.304465H198.763V9.82409L192.867 0.304465H189.429V14.6955H192.187V4.48579L198.623 14.6955H201.521Z" fill="#3367B0"/>
<path d="M215.184 2.96346V0.304465H203.452V2.96346H207.929V14.6955H210.707V2.96346H215.184Z" fill="#3367B0"/>
<path d="M226 14.6955V12.0568H219.884V8.72801H225.42V6.23139H219.884V2.94317H226V0.304465H217.126V14.6955H226Z" fill="#3367B0"/>
</svg>
