<svg width="16" height="19" viewBox="0 0 16 19" fill="none" xmlns="http://www.w3.org/2000/svg">
<path d="M3.00002 17.0004C3.00002 17.0014 13.0016 17 13.0016 17C12.9997 17 12.9999 7.20299 13 4H3.00002V17.0004ZM15 17.0004C15 18.1047 14.103 19 13.0016 19H2.99844C1.89475 19 1.00002 18.1066 1.00002 17.0004V4C0.447657 3.99953 2.28882e-05 3.55584 2.28882e-05 3C2.28882e-05 2.44772 0.444654 2 1.00089 2H6.00002C6.00002 0.89543 6.89545 0 8.00002 0C9.10459 0 10 0.89543 10 2H14.9992C15.5519 2 16 2.44386 16 3C16 3.552 15.5559 3.99953 15 4V17.0004ZM9.00002 6.99754C9.00002 6.44662 9.44389 6 10 6C10.5523 6 11 6.44631 11 6.99754V14.0025C11 14.5534 10.5562 15 10 15C9.44774 15 9.00002 14.5537 9.00002 14.0025V6.99754ZM5.00002 6.99754C5.00002 6.44662 5.44389 6 6.00002 6C6.55231 6 7.00002 6.44631 7.00002 6.99754V14.0025C7.00002 14.5534 6.55616 15 6.00002 15C5.44774 15 5.00002 14.5537 5.00002 14.0025V6.99754Z" fill="#C1C1C1"/>
</svg>
